<svg width="50" height="40" viewBox="0 0 50 40" fill="none" xmlns="http://www.w3.org/2000/svg">
<path d="M16.6914 0.251221H17.4844L18.0508 0.590054L18.3906 1.26772V4.20428L18.8438 5.44667L19.6367 6.57611L20.7695 7.59261L23.0352 9.06089L23.1484 9.73856V11.4327L22.582 11.9974L21.9023 12.2233H20.7695L19.4102 11.6586L18.957 11.3198L18.5039 11.5457L17.5977 12.1104L17.2578 12.2233H16.2383L15.2188 11.7716L13.9727 10.7551L13.7461 11.2068L12.9531 11.7716L11.9336 11.9974L10.5742 11.5457L9.32812 10.6421L8.76172 10.5292L8.08203 10.7551H6.49609L5.58984 10.1903L5.13672 9.62561L4.68359 8.72206V8.49617H3.55078L2.30469 7.8185L1.39844 6.91495L0.492188 5.67256V5.33372L4.23047 4.54311L8.76172 3.07483L11.8203 1.83244L14.7656 0.702999L16.0117 0.364165L16.6914 0.251221Z" fill="#31B8CC"/>
<path d="M32.4375 0.251221H33.3438L35.043 0.702999L40.2539 2.736L43.0859 3.7525L45.6914 4.54311L48.75 5.22078L49.3164 5.33372L49.2031 5.7855L48.2969 7.02789L47.3906 7.93145L46.1445 8.49617H45.125L45.0117 9.17384L44.332 10.0774L43.6523 10.6421L43.1992 10.7551H41.8398L41.0469 10.5292L40.5938 10.4162L40.4805 10.7551L39.0078 11.6586L38.3281 11.8845H37.3086L36.4023 11.4327L35.6094 10.7551L35.3828 11.2068L34.25 11.9974L33.457 12.2233H32.6641L31.6445 11.7716L31.1914 11.3198L30.5117 11.5457L29.3789 12.1104L28.1328 12.2233L27.1133 11.8845L26.5469 11.4327L26.6602 9.17384L27.5664 8.60911L28.2461 8.15734L29.2656 7.36672L30.3984 6.35022L31.0781 5.33372L31.418 4.31722L31.5312 3.63956L31.418 2.51011V1.38067L31.7578 0.590054L32.4375 0.251221Z" fill="#31B8CC"/>
<path d="M23.9414 0.364151H25.7539L26.8867 0.928874L27.6797 1.83243L28.1328 2.73599L28.2461 3.18776V3.97838L27.9062 5.10782L27.1133 6.12432L26.4336 6.68904L26.3203 6.91493L26.207 8.15732L26.0938 11.4327L25.8672 15.4987L25.6406 20.3553L25.5273 23.1789L29.832 22.2754L31.7578 21.5977L32.6641 20.9201L32.8906 20.4683V19.6777L32.5508 18.7741L31.6445 17.5317L31.0781 17.6447L30.7383 17.7576H29.7188L28.9258 17.3058L28.3594 16.5152L28.2461 16.1764V15.3858L28.6992 14.4822L29.2656 14.0304L29.7188 13.8045H30.7383L31.418 14.1434L32.0977 14.934L32.3242 15.9505L31.9844 17.0799L33.1172 18.5482L33.457 19.3388V20.6942L32.7773 21.5977L31.8711 22.1624L29.4922 22.9531L26.4336 23.6307L28.4727 24.3084L29.4922 24.8731L30.0586 25.4378L30.3984 25.8896L30.5117 26.2284V27.3579L30.1719 28.2614L29.4922 29.165L28.4727 30.0686L25.6406 31.7627H25.4141L25.9805 32.3274L27 33.231L27.5664 34.2475L27.793 34.8122V36.2805L27.2266 37.41L26.207 38.3135L25.7539 38.5394L27.2266 38.8782L28.2461 39.1041V39.443H27.2266L24.7344 38.9912L23.1484 39.33L21.4492 39.443L21.5625 38.9912L23.1484 38.7653L23.9414 38.5394L23.0352 37.8617L22.2422 36.9582L22.0156 36.3934L21.9023 35.3769L22.1289 34.3604L22.8086 33.231L23.7148 32.3274L24.2812 32.1016V31.7627L23.7148 31.5368L21.7891 30.4074L20.7695 29.6168L20.0898 29.0521L19.5234 28.1485L19.2969 27.4708V26.2284L19.8633 25.3249L21.1094 24.4213L23.0352 23.7437L23.1484 23.6307L19.75 22.8401L18.1641 22.2754L17.1445 21.7107L16.4648 20.9201L16.2383 20.3553L16.3516 19.3388L16.918 18.2094L17.8242 17.0799L17.7109 16.6282L17.4844 15.8375L17.8242 14.7081L18.7305 13.9175L19.1836 13.8045H19.9766L20.8828 14.2563L21.4492 15.0469L21.5625 15.3858V16.2893L20.9961 17.3058L20.0898 17.7576H19.0703L18.5039 17.5317L18.0508 17.6447L17.2578 18.7741L16.918 19.5647V20.4683L17.3711 21.1459L19.1836 22.0495L21.3359 22.6142L24.2812 23.1789L24.168 22.9531L23.7148 12.4492L23.4883 7.47965L23.375 6.68904L22.2422 5.67254L21.6758 4.65604L21.5625 4.20426V2.96187L22.0156 1.83243L23.0352 0.815929L23.9414 0.364151ZM23.8281 23.9696L22.0156 24.5343L20.6562 25.2119L19.8633 26.1155L19.75 27.0191L19.9766 27.9226L20.7695 28.9391L21.9023 29.8427L23.0352 30.5203L24.3945 31.3109H24.6211L24.5078 27.4708L24.2812 23.9696H23.8281ZM25.4141 23.9696L25.1875 27.8097L25.0742 31.4239L25.7539 31.198L28.2461 29.6168L29.3789 28.6003L29.832 27.9226L30.0586 27.132V26.3414L29.6055 25.6637L28.9258 25.099L27.793 24.5343L25.7539 23.9696H25.4141ZM25.0742 32.3274L24.9609 33.1181L24.8477 35.3769L24.7344 32.4404L24.168 32.6663L23.2617 33.4569L22.6953 34.2475L22.4688 35.0381V36.1676L22.8086 36.9582L23.7148 37.8617L24.7344 38.4264L25.5273 38.2006L26.7734 37.297L27.3398 36.1676V35.264L27 34.1346L26.207 33.1181L25.1875 32.3274H25.0742Z" fill="#31B8CC"/>
</svg>
